# AST/ASF file generated using VICON BodyLanguage
# -----------------------------------------------
:version 1.10
:name VICON
:units
  mass 1.0
  length 0.45
  angle deg
:documentation
   .ast/.asf automatically generated from VICON data using
   VICON BodyBuilder and BodyLanguage model FoxedUp or BRILLIANT.MOD
:root
   order TX TY TZ RX RY RZ
   axis XYZ
   position 0 0 0  
   orientation 0 0 0 
:bonedata
  begin
     id 1 
     name lhipjoint
     direction 0.78388 -0.462562 0.414208 
     length 3.01181 
     axis 0 0 0  XYZ
  end
  begin
     id 2 
     name lfemur
     direction 0.34202 -0.939693 0  
     length 6.04673  
     axis 0 0 20  XYZ
    dof rx ry rz
    limits (-160.0 20.0)
           (-70.0 70.0)
           (-60.0 70.0)
  end
  begin
     id 3 
     name ltibia
     direction 0.34202 -0.939693 0   
     length 7.211   
     axis 0 0 20   XYZ
    dof rx
    limits (-10.0 170.0)
  end
  begin
     id 4 
     name lfoot
     direction 0.121887 -0.334882 0.934344   
     length 2.13567   
     axis -90 7.62852e-016 20   XYZ
    dof rx rz
    limits (-45.0 90.0)
           (-70.0 20.0)
  end
  begin
     id 5 
     name ltoes
     direction 1.53555e-011 -4.2179e-011 1   
     length 1.05957   
     axis -90 7.62852e-016 20   XYZ
    dof rx
    limits (-90.0 20.0)
  end
  begin
     id 6 
     name rhipjoint
     direction -0.769387 -0.475875 0.426129   
     length 2.92756  
     axis 0 0 0  XYZ 
  end
  begin
     id 7 
     name rfemur
     direction -0.34202 -0.939693 0   
     length 6.35468   
     axis 0 0 -20   XYZ
    dof rx ry rz
    limits (-160.0 20.0)
           (-70.0 70.0)
           (-70.0 60.0)
  end
  begin
     id 8 
     name rtibia
     direction -0.34202 -0.939693 0   
     length 7.37886   
     axis 0 0 -20   XYZ
    dof rx
    limits (-10.0 170.0)
 end
 begin
     id 9 
     name rfoot
     direction -0.101763 -0.279592 0.954711   
     length 2.21478  
     axis -90 -7.62852e-016 -20   XYZ
    dof rx rz
    limits (-45.0 90.0)
           (-20.0 70.0)
  end
  begin
     id 10 
     name rtoes
     direction -1.53494e-011 -4.21851e-011 1   
     length 1.10506   
     axis -90 -7.62852e-016 -20   XYZ
    dof rx
    limits (-90.0 20.0)
  end
  begin
     id 11 
     name lowerback
     direction 0.00747405 0.999267 0.0375481   
     length 2.13259   
     axis 0 0 0   XYZ
    dof rx ry rz
    limits (-20.0 45.0)
           (-30.0 30.0)
           (-30.0 30.0)
  end
  begin
     id 12 
     name upperback
     direction 0.00661626 0.996177 0.0871029   
     length 2.10528   
     axis 0 0 0   XYZ
    dof rx ry rz
    limits (-20.0 45.0)
           (-30.0 30.0)
           (-30.0 30.0)
  end
  begin
     id 13 
     name thorax
     direction 0.00320659 0.997679 0.0680167   
     length 2.11338   
     axis 0 0 0   XYZ
    dof rx ry rz
    limits (-20.0 45.0)
           (-30.0 30.0)
           (-30.0 30.0)
  end
  begin
     id 14 
     name lowerneck
     direction 0.0374841 0.973033 0.227602   
     length 1.42765   
     axis 0 0 0   XYZ
    dof rx ry rz
    limits (-20.0 45.0)
           (-30.0 30.0)
           (-30.0 30.0)
  end
  begin
     id 15 
     name upperneck
     direction 0.00481585 0.989155 -0.146795   
     length 1.47593   
     axis 0 0 0   XYZ
    dof rx ry rz
    limits (-20.0 45.0)
           (-30.0 30.0)
           (-30.0 30.0)
  end
  begin
     id 16
     name head
     direction -0.00292522 0.997206 -0.0746423  
     length 1.48116  
     axis 0 0 0   XYZ
    dof rx ry rz
    limits (-20.0 45.0)
           (-30.0 30.0)
           (-30.0 30.0)
  end
  begin
     id 17 
     name lclavicle
     direction 0.951444 0.305606 0.0368784  
     length 3.01855  
     axis 0 0 0   XYZ
    dof ry rz
    limits (-20.0 10.0)
           (0.0 20.0)
  end
  begin
     id 18 
     name lhumerus
     direction 1 -4.48977e-011 2.61664e-027   
     length 5.52731   
     axis 180 -30 -90   XYZ
    dof rx ry rz
    limits (-60.0 90.0)
           (-90.0 90.0)
           (-90.0 90.0)
  end
  begin
     id 19
     name lradius
     direction 1 -4.48944e-011 8.22157e-027   
     length 3.11059   
     axis 180 -30 -90   XYZ
    dof rx
    limits (-10.0 170.0)
  end
  begin
     id 20
     name lwrist
     direction 1 -4.48976e-011 1.5779e-026   
     length 1.5553   
     axis -1.15221e-014 90 90   XYZ
    dof ry
    limits (-180.0 0.0)
 end
  begin
     id 21 
     name lhand
     direction 1 -4.49025e-011 3.1558e-026   
     length 0.419626   
     axis -2.01367e-014 90 90   XYZ
    dof rx rz
    limits (-90.0 90.0)
           (-45.0 45.0)
  end
  begin
     id 22 
     name lfingers
     direction 1 -4.4904e-011 6.31161e-026   
     length 0.338313   
     axis -4.02734e-014 90 90   XYZ
    dof rx
    limits (0.0 90.0)
  end
  begin
     id 23
     name lthumb
     direction 0.707107 -6.35004e-011 0.707107   
     length 0.485752   
     axis -90 45 2.85299e-015   XYZ
    dof rx rz
    limits (-45.0 45.0)
           (-45.0 45.0)
  end
  begin
     id 24 
     name rclavicle
     direction -0.968876 0.223791 0.105816   
     length 3.04177  
     axis 0 0 0   XYZ 
    dof ry rz
    limits (-10.0 20.0)
           (-20.0 0.0)
  end
  begin
     id 25 
     name rhumerus
     direction -1 -4.48962e-011 -1.01384e-027  
     length 5.25396   
     axis 180 30 90   XYZ
    dof rx ry rz
    limits (-90.0 60.0)
           (-90.0 90.0)
           (-90.0 90.0)
  end
  begin
     id 26 
     name rradius
     direction -1 -4.48955e-011 8.88542e-027   
     length 3.10567   
     axis 180 30 90   XYZ
    dof rx
    limits (-10.0 170.0)
  end
  begin
     id 27 
     name rwrist
     direction -1 -4.48994e-011 1.5779e-026   
     length 1.55283   
     axis -1.15221e-014 -90 -90   XYZ
    dof ry
    limits (-180.0 0.0)
  end
  begin
     id 28
     name rhand
     direction -1 -4.48891e-011 3.1558e-026   
     length 0.498676   
     axis -2.01367e-014 -90 -90   XYZ
    dof rx rz
    limits (-90.0 90.0)
           (-45.0 45.0)
  end
  begin
     id 29
     name rfingers
     direction -1 -4.48972e-011 6.31161e-026   
     length 0.402045   
     axis -4.02734e-014 -90 -90   XYZ
    dof rx
    limits (0.0 90.0)
  end
  begin
     id 30
     name rthumb
     direction -0.707107 -6.34849e-011 0.707107   
     length 0.577259   
     axis -90 -45 -2.85299e-015   XYZ
    dof rx rz
    limits (-45.0 45.0)
           (-45.0 45.0)
  end
:hierarchy
  begin
    root lhipjoint rhipjoint lowerback
    lhipjoint lfemur
    lfemur ltibia
    ltibia lfoot
    lfoot ltoes
    rhipjoint rfemur
    rfemur rtibia
    rtibia rfoot
    rfoot rtoes
    lowerback upperback
    upperback thorax
    thorax lowerneck lclavicle rclavicle
    lowerneck upperneck
    upperneck head
    lclavicle lhumerus
    lhumerus lradius
    lradius lwrist
    lwrist lhand lthumb
    lhand lfingers
    rclavicle rhumerus
    rhumerus rradius
    rradius rwrist
    rwrist rhand rthumb
    rhand rfingers
  end

#!OML:ASF H:\Pregnant\Project 1\Capture day 1\Session 1\femalepreg.ASF
:FULLY-SPECIFIED
:DEGREES
211
root 8.91259 20.1387 3.95403 -330.791 -60.7961 -5.91693
lowerback -17.2298 1.6487 -4.04668
upperback -5.81902 2.66183 -0.412372
thorax 3.24758 1.25608 2.3669
lowerneck -18.7413 6.84415 7.04503
upperneck 36.5338 8.13744 -2.43508
head 16.8041 3.78302 -0.751016
rclavicle 7.71285e-014 1.66979e-014
rhumerus -37.7936 -8.66698 -71.4142
rradius 37.1537
rwrist -5.42323
rhand -14.413 -16.291
rfingers 7.12502
rthumb 11.7309 -45.9425
lclavicle 7.71285e-014 1.66979e-014
lhumerus -37.7047 1.0149 75.0381
lradius 34.1426
lwrist 44.2157
lhand -28.0863 -1.55654
lfingers 7.12502
lthumb -1.46924 28.4181
rfemur -40.5993 2.2125 30.1046
rtibia 46.4966
rfoot -20.1844 -30.0371
rtoes -6.40518
lfemur -35.9854 -7.43239 -23.2033
ltibia 29.4041
lfoot -10.3069 10.6538
ltoes -38.3305
212
root 8.91975 20.1353 3.96331 -330.878 -60.6312 -5.85695
lowerback -17.1347 1.67174 -4.11487
upperback -5.78172 2.70728 -0.501815
thorax 3.2351 1.2794 2.31682
lowerneck -18.6184 6.9039 7.14606
upperneck 36.5812 8.20519 -2.44859
head 16.8114 3.82378 -0.763814
rclavicle 6.09275e-014 -2.54444e-014
rhumerus -37.6413 -8.52385 -71.5178
rradius 37.6933
rwrist -5.59645
rhand -14.5496 -16.2201
rfingers 7.12502
rthumb 11.5992 -45.8791
lclavicle 6.09275e-014 -2.54444e-014
lhumerus -37.7289 1.25089 74.6882
lradius 33.4665
lwrist 44.3201
lhand -28.325 -1.44318
lfingers 7.12502
lthumb -1.69985 28.5298
rfemur -41.1376 2.08071 29.9713
rtibia 47.4674
rfoot -19.872 -29.6043
rtoes -6.57519
lfemur -35.9926 -7.40549 -23.2665
ltibia 29.433
lfoot -10.3831 10.4512
ltoes -38.3283
213
root 8.92713 20.1319 3.97226 -330.97 -60.456 -5.78843
lowerback -17.0366 1.69442 -4.17505
upperback -5.74515 2.75087 -0.598207
thorax 3.2212 1.30172 2.25438
lowerneck -18.5126 6.957 7.25143
upperneck 36.6286 8.25962 -2.46004
head 16.8224 3.85984 -0.778617
rclavicle -6.0033e-014 -7.95139e-015
rhumerus -37.4991 -8.39381 -71.6318
rradius 38.244
rwrist -5.78785
rhand -14.7127 -16.1998
rfingers 7.12502
rthumb 11.4418 -45.8675
lclavicle -6.0033e-014 -7.95139e-015
lhumerus -37.7394 1.47501 74.3288
lradius 32.769
lwrist 44.3867
lhand -28.5411 -1.30892
lfingers 7.12502
lthumb -1.90847 28.6623
rfemur -41.7011 1.95669 29.8303
rtibia 48.4604
rfoot -19.5392 -29.1652
rtoes -6.53877
lfemur -36.0067 -7.37013 -23.3335
ltibia 29.4633
lfoot -10.4745 10.225
ltoes -38.2977
214
root 8.93467 20.1285 3.9807 -331.064 -60.2709 -5.71232
lowerback -16.9343 1.71214 -4.23347
upperback -5.70942 2.78712 -0.692929
thorax 3.2047 1.32045 2.19113
lowerneck -18.4173 7.00602 7.34438
upperneck 36.6739 8.31062 -2.46768
head 16.8336 3.89325 -0.790034
rclavicle -5.59579e-014 7.95139e-015
rhumerus -37.362 -8.26243 -71.7497
rradius 38.8011
rwrist -5.98981
rhand -14.8921 -16.2193
rfingers 7.12502
rthumb 11.2688 -45.8966
lclavicle -5.59579e-014 7.95139e-015
lhumerus -37.7413 1.70258 73.9666
lradius 32.0557
lwrist 44.4168
lhand -28.7386 -1.15546
lfingers 7.12502
lthumb -2.09923 28.814
rfemur -42.2814 1.84597 29.6794
rtibia 49.4617
rfoot -19.1868 -28.7175
rtoes -6.28524
lfemur -36.0261 -7.32909 -23.403
ltibia 29.4922
lfoot -10.5782 9.97879
ltoes -38.2369
215
root 8.94231 20.1252 3.98855 -331.162 -60.076 -5.63015
lowerback -16.8266 1.72084 -4.29447
upperback -5.67446 2.81099 -0.778354
thorax 3.18465 1.33322 2.13656
lowerneck -18.3232 7.05333 7.40685
upperneck 36.7135 8.36753 -2.46774
head 16.8399 3.92598 -0.79178
rclavicle 6.41081e-014 -2.70347e-014
rhumerus -37.2265 -8.11982 -71.8636
rradius 39.3578
rwrist -6.18764
rhand -15.0848 -16.261
rfingers 7.12502
rthumb 11.083 -45.9484
lclavicle 6.41081e-014 -2.70347e-014
lhumerus -37.7402 1.9432 73.6087
lradius 31.3321
lwrist 44.416
lhand -28.9291 -0.997871
lfingers 7.12502
lthumb -2.28324 28.9697
rfemur -42.8685 1.75532 29.5162
rtibia 50.4571
rfoot -18.8173 -28.2606
rtoes -5.81396
lfemur -36.0484 -7.28621 -23.4729
ltibia 29.5174
lfoot -10.6899 9.71807
ltoes -38.149
216
root 8.94999 20.1221 3.9957 -331.262 -59.8717 -5.5442
lowerback -16.713 1.71937 -4.35957
upperback -5.64018 2.821 -0.850907
thorax 3.16072 1.33935 2.09505
lowerneck -18.2242 7.09985 7.428
upperneck 36.745 8.43493 -2.45747
head 16.8377 3.95887 -0.780121
rclavicle -7.95636e-014 1.59028e-015
rhumerus -37.0919 -7.96575 -71.9672
rradius 39.9071
rwrist -6.36471
rhand -15.2775 -16.3005
rfingers 7.12502
rthumb 10.8971 -45.9978
lclavicle -7.95636e-014 1.59028e-015
lhumerus -37.7389 2.19762 73.2608
lradius 30.6032
lwrist 44.3887
lhand -29.1252 -0.859474
lfingers 7.12502
lthumb -2.47264 29.1059
rfemur -43.4529 1.69287 29.3384
rtibia 51.4336
rfoot -18.4334 -27.7952
rtoes -5.13745
lfemur -36.0715 -7.24512 -23.5413
ltibia 29.5368
lfoot -10.8045 9.44891
ltoes -38.0413
217
root 8.95757 20.1192 4.00213 -331.364 -59.6581 -5.4563
lowerback -16.5938 1.70853 -4.42793
upperback -5.60621 2.81813 -0.910623
thorax 3.13338 1.33929 2.06631
lowerneck -18.1151 7.14516 7.40135
upperneck 36.766 8.51318 -2.43291
head 16.8238 3.99185 -0.752394
rclavicle 1.94312e-014 2.8625e-014
rhumerus -36.9602 -7.80267 -72.0585
rradius 40.4454
rwrist -6.51447
rhand -15.4661 -16.3248
rfingers 7.12502
rthumb 10.7152 -46.0316
lclavicle 1.94312e-014 2.8625e-014
lhumerus -37.738 2.46058 72.9256
lradius 29.8737
lwrist 44.3358
lhand -29.3331 -0.752147
lfingers 7.12502
lthumb -2.67337 29.2108
rfemur -44.0256 1.66598 29.1437
rtibia 52.3802
rfoot -18.0423 -27.3186
rtoes -4.27212
lfemur -36.0924 -7.21055 -23.6055
ltibia 29.5479
lfoot -10.9152 9.17694
ltoes -37.927
218
root 8.9649 20.1166 4.00779 -331.47 -59.4331 -5.36428
lowerback -16.4706 1.69099 -4.49714
upperback -5.57062 2.80594 -0.963021
thorax 3.10577 1.33469 2.04399
lowerneck -18.003 7.18845 7.34081
upperneck 36.781 8.59749 -2.39965
head 16.8032 4.02397 -0.714173
rclavicle -1.51076e-014 3.18055e-015
rhumerus -36.8339 -7.64397 -72.1403
rradius 40.969
rwrist -6.63381
rhand -15.6418 -16.3211
rfingers 7.12502
rthumb 10.5457 -46.0366
lclavicle -1.51076e-014 3.18055e-015
lhumerus -37.7325 2.72188 72.6007
lradius 29.1475
lwrist 44.2517
lhand -29.5464 -0.665596
lfingers 7.12502
lthumb -2.87941 29.2947
rfemur -44.5774 1.67905 28.929
rtibia 53.2876
rfoot -17.6586 -26.8198
rtoes -3.23042
lfemur -36.1069 -7.18781 -23.6647
ltibia 29.5469
lfoot -11.0168 8.905
ltoes -37.8183
219
root 8.97178 20.1144 4.01272 -331.584 -59.1926 -5.26623
lowerback -16.3445 1.6694 -4.56385
upperback -5.53182 2.78777 -1.01356
thorax 3.0804 1.32706 2.02118
lowerneck -17.8934 7.22824 7.26124
upperneck 36.7936 8.68226 -2.36411
head 16.7802 4.05398 -0.671732
rclavicle -2.41523e-014 -4.77083e-015
rhumerus -36.7166 -7.49986 -72.2171
rradius 41.477
rwrist -6.72813
rhand -15.7908 -16.2825
rfingers 7.12502
rthumb 10.402 -46.0052
lclavicle -2.41523e-014 -4.77083e-015
lhumerus -37.7179 2.97485 72.2816
lradius 28.4293
lwrist 44.124
lhand -29.7469 -0.568337
lfingers 7.12502
lthumb -3.073 29.3893
rfemur -45.0994 1.73365 28.6922
rtibia 54.1475
rfoot -17.3019 -26.277
rtoes -2.02895
lfemur -36.1097 -7.18295 -23.7171
ltibia 29.5294
lfoot -11.1044 8.63404
ltoes -37.7245
220
root 8.97795 20.1129 4.01693 -331.71 -58.9318 -5.16011
lowerback -16.2177 1.64474 -4.62697
upperback -5.48802 2.76518 -1.06593
thorax 3.06041 1.31706 1.99381
lowerneck -17.7927 7.26407 7.17808
upperneck 36.808 8.76389 -2.3341
head 16.7602 4.0813 -0.631577
rclavicle 1.22253e-013 7.15625e-015
rhumerus -36.6104 -7.37467 -72.2935
rradius 41.9685
rwrist -6.80653
rhand -15.8952 -16.1999
rfingers 7.12502
rthumb 10.3013 -45.9276
lclavicle 1.22253e-013 7.15625e-015
lhumerus -37.6907 3.21742 71.964
lradius 27.7246
lwrist 43.9423
lhand -29.9162 -0.426077
lfingers 7.12502
lthumb -3.23649 29.5291
rfemur -45.5849 1.82997 28.4317
rtibia 54.9507
rfoot -16.9933 -25.6582
rtoes -0.701359
lfemur -36.0962 -7.20053 -23.7613
ltibia 29.4916
lfoot -11.176 8.36243
ltoes -37.6462
